<?xml version="1.0" standalone="no"?>
<!DOCTYPE svg PUBLIC "-//W3C//DTD SVG 20010904//EN"
 "http://www.w3.org/TR/2001/REC-SVG-20010904/DTD/svg10.dtd">
<svg version="1.0" xmlns="http://www.w3.org/2000/svg"
 width="512.000000pt" height="512.000000pt" viewBox="0 0 512.000000 512.000000"
 preserveAspectRatio="xMidYMid meet">

<g transform="translate(0.000000,512.000000) scale(0.100000,-0.100000)"
fill="#000000" stroke="none">
<path d="M2496 4908 c-32 -4 -81 -18 -110 -31 -28 -13 -445 -245 -926 -516
-917 -515 -937 -528 -995 -628 -56 -95 -55 -71 -55 -1173 0 -647 4 -1031 11
-1059 5 -24 21 -67 35 -96 55 -113 58 -114 1029 -660 510 -287 923 -512 953
-521 68 -20 176 -20 244 0 29 8 118 52 198 97 1497 839 1647 925 1701 976 58
55 101 129 118 204 14 60 14 2058 0 2118 -17 75 -60 149 -118 204 -54 51 -434
269 -1634 938 -262 146 -320 165 -451 147z m304 -1143 c246 -49 478 -178 654
-366 42 -45 75 -86 73 -92 -7 -21 -430 -260 -443 -251 -6 5 -38 30 -70 57
-134 108 -283 161 -454 160 -166 0 -304 -47 -438 -148 -118 -89 -220 -245
-259 -395 -22 -86 -22 -254 0 -340 39 -150 141 -306 259 -395 134 -101 272
-148 438 -148 171 -1 320 52 454 160 32 27 64 52 70 57 13 9 436 -230 443
-251 6 -18 -143 -169 -236 -238 -146 -110 -339 -194 -521 -226 -97 -17 -324
-17 -420 0 -507 91 -903 487 -1001 1001 -16 84 -16 336 0 420 101 536 520 936
1056 1009 90 13 299 5 395 -14z m990 -795 l0 -100 100 0 100 0 0 100 0 100
105 0 105 0 0 -100 0 -100 100 0 100 0 0 -105 0 -105 -100 0 -100 0 0 -100 0
-100 100 0 100 0 0 -105 0 -105 -100 0 -100 0 0 -100 0 -100 -105 0 -105 0 0
100 0 100 -100 0 -100 0 0 -100 0 -100 -105 0 -105 0 0 100 0 100 -100 0 -100
0 0 105 0 105 100 0 100 0 0 100 0 100 -100 0 -100 0 0 105 0 105 100 0 100 0
0 100 0 100 105 0 105 0 0 -100z"/>
<path d="M3790 2560 l0 -100 100 0 100 0 0 100 0 100 -100 0 -100 0 0 -100z"/>
</g>
</svg>
