<?xml version="1.0" standalone="no"?>
<!DOCTYPE svg PUBLIC "-//W3C//DTD SVG 20010904//EN"
 "http://www.w3.org/TR/2001/REC-SVG-20010904/DTD/svg10.dtd">
<svg version="1.0" xmlns="http://www.w3.org/2000/svg"
 width="225.000000pt" height="225.000000pt" viewBox="0 0 225.000000 225.000000"
 preserveAspectRatio="xMidYMid meet">

<g transform="translate(0.000000,225.000000) scale(0.100000,-0.100000)"
fill="#000000" stroke="none">
<path d="M140 2230 c0 -21 26 -321 123 -1415 l52 -590 405 -112 404 -112 321
89 c391 107 459 128 478 143 15 12 19 53 138 1416 27 311 49 574 49 583 0 17
-49 18 -985 18 l-985 0 0 -20z m1606 -453 c-3 -34 -26 -287 -51 -562 -24 -275
-47 -533 -51 -573 -6 -62 -10 -75 -28 -81 -12 -5 -126 -37 -254 -72 l-233 -63
-92 23 c-161 41 -412 113 -419 120 -7 6 -38 309 -38 366 l0 25 111 0 c139 0
149 -5 149 -73 0 -29 3 -68 6 -88 l6 -37 137 -36 136 -36 136 36 136 36 13
146 c7 80 14 152 17 159 4 11 -77 13 -425 13 -383 0 -431 2 -436 16 -3 9 -9
67 -13 130 l-6 114 450 0 450 0 7 73 c3 39 9 93 12 120 l7 47 -139 0 c-77 0
-290 3 -475 7 l-337 6 -6 46 c-3 25 -8 81 -12 124 l-7 77 628 0 628 0 -7 -63z"/>
</g>
</svg>
