<?xml version="1.0" standalone="no"?>
<!DOCTYPE svg PUBLIC "-//W3C//DTD SVG 20010904//EN"
 "http://www.w3.org/TR/2001/REC-SVG-20010904/DTD/svg10.dtd">
<svg version="1.0" xmlns="http://www.w3.org/2000/svg"
 width="225.000000pt" height="225.000000pt" viewBox="0 0 225.000000 225.000000"
 preserveAspectRatio="xMidYMid meet">

<g transform="translate(0.000000,225.000000) scale(0.100000,-0.100000)"
fill="#000000" stroke="none">
<path d="M1062 2149 c-20 -6 -73 -49 -135 -109 l-102 -99 104 -105 c93 -93
107 -104 125 -94 29 16 117 13 151 -5 80 -41 116 -126 91 -211 l-13 -44 101
-99 101 -100 40 13 c116 37 228 -47 228 -171 0 -105 -73 -178 -178 -178 -74 0
-130 35 -165 102 -15 29 -16 121 -1 148 8 17 -4 34 -92 120 -89 89 -105 100
-124 92 l-23 -8 0 -273 0 -273 40 -23 c129 -74 124 -253 -10 -322 -31 -17
-119 -17 -150 0 -37 18 -70 51 -87 85 -21 39 -20 122 1 162 16 32 65 74 99 86
16 6 17 29 17 282 l0 275 -27 11 c-82 31 -125 125 -99 213 l13 44 -103 103
-104 104 -291 -290 c-336 -335 -365 -368 -374 -428 -15 -101 -22 -93 438 -556
232 -233 443 -440 470 -462 55 -44 111 -57 178 -39 39 11 89 57 468 433 233
232 440 443 462 470 44 55 57 111 39 178 -11 39 -57 90 -448 482 -241 241
-453 449 -473 463 -41 28 -116 39 -167 23z"/>
</g>
</svg>
