<?xml version="1.0" standalone="no"?>
<!DOCTYPE svg PUBLIC "-//W3C//DTD SVG 20010904//EN"
 "http://www.w3.org/TR/2001/REC-SVG-20010904/DTD/svg10.dtd">
<svg version="1.0" xmlns="http://www.w3.org/2000/svg"
 width="227.000000pt" height="222.000000pt" viewBox="0 0 227.000000 222.000000"
 preserveAspectRatio="xMidYMid meet">

<g transform="translate(0.000000,222.000000) scale(0.100000,-0.100000)"
fill="#000000" stroke="none">
<path d="M902 2189 c-352 -74 -659 -321 -802 -647 -23 -50 -53 -136 -67 -190
-23 -86 -26 -116 -26 -267 0 -190 10 -256 66 -404 110 -294 337 -528 629 -649
136 -57 148 -47 148 116 l0 117 -118 0 c-100 0 -123 3 -157 22 -54 29 -78 56
-115 136 -30 64 -59 100 -129 158 -37 32 -39 47 -7 55 65 16 134 -30 240 -160
48 -58 86 -76 163 -75 91 0 124 16 138 66 7 23 22 57 33 75 l21 34 -86 17
c-233 45 -363 169 -409 392 -32 157 -8 306 68 412 33 46 33 50 22 88 -17 55
-16 118 4 195 l17 65 41 -1 c49 -1 137 -34 216 -81 l57 -34 78 17 c105 23 311
23 416 0 l77 -17 68 40 c77 46 183 83 221 79 23 -3 28 -10 43 -68 20 -77 21
-140 4 -195 -11 -38 -11 -42 22 -88 75 -105 99 -246 68 -406 -42 -223 -174
-352 -407 -398 -46 -9 -85 -17 -87 -18 -2 -2 8 -19 22 -39 37 -55 46 -118 46
-321 0 -239 2 -242 147 -184 338 134 596 443 680 814 25 111 22 375 -6 489
-108 440 -444 767 -881 856 -131 27 -328 26 -458 -1z"/>
</g>
</svg>
