<?xml version="1.0" standalone="no"?>
<!DOCTYPE svg PUBLIC "-//W3C//DTD SVG 20010904//EN"
 "http://www.w3.org/TR/2001/REC-SVG-20010904/DTD/svg10.dtd">
<svg version="1.0" xmlns="http://www.w3.org/2000/svg"
 width="225.000000pt" height="225.000000pt" viewBox="0 0 225.000000 225.000000"
 preserveAspectRatio="xMidYMid meet">

<g transform="translate(0.000000,225.000000) scale(0.100000,-0.100000)"
fill="#000000" stroke="none">
<path d="M142 2233 c-5 -11 26 -402 80 -1003 76 -842 91 -987 106 -1002 16
-16 756 -228 796 -228 38 0 782 213 798 228 14 14 23 85 53 417 85 958 97
1093 119 1327 12 142 18 254 13 263 -7 13 -124 15 -982 15 -918 0 -975 -1
-983 -17z m1591 -408 c10 -9 13 -28 10 -57 -2 -24 -7 -74 -11 -113 l-7 -70
-465 -3 c-259 -1 -468 -6 -473 -11 -15 -15 3 -209 20 -226 12 -13 81 -15 449
-15 367 0 435 -2 440 -14 10 -25 -57 -730 -70 -744 -7 -7 -123 -43 -257 -80
l-245 -68 -210 58 c-115 32 -226 63 -246 69 -21 5 -42 18 -48 29 -17 32 -42
350 -29 366 17 21 212 20 229 -1 7 -8 15 -45 17 -82 8 -101 11 -104 159 -143
l127 -34 126 33 c69 18 132 38 139 45 18 18 44 286 30 304 -8 9 -104 12 -417
12 -236 0 -412 4 -421 10 -11 7 -22 87 -47 367 -30 332 -31 359 -16 371 13 9
151 12 609 12 505 0 595 -2 607 -15z"/>
</g>
</svg>
