<?xml version="1.0" standalone="no"?>
<!DOCTYPE svg PUBLIC "-//W3C//DTD SVG 20010904//EN"
 "http://www.w3.org/TR/2001/REC-SVG-20010904/DTD/svg10.dtd">
<svg version="1.0" xmlns="http://www.w3.org/2000/svg"
 width="225.000000pt" height="225.000000pt" viewBox="0 0 225.000000 225.000000"
 preserveAspectRatio="xMidYMid meet">

<g transform="translate(0.000000,225.000000) scale(0.100000,-0.100000)"
fill="#000000" stroke="none">
<path d="M0 1125 l0 -1125 1125 0 1125 0 0 1125 0 1125 -1125 0 -1125 0 0
-1125z m2040 1020 c10 -12 -3 -187 -64 -872 -92 -1030 -83 -950 -109 -967 -12
-8 -184 -60 -382 -116 l-360 -103 -360 103 c-198 56 -370 108 -382 116 -26 17
-17 -63 -109 967 -61 685 -74 860 -64 872 11 13 130 15 915 15 785 0 904 -2
915 -15z"/>
<path d="M860 1305 c0 -283 -4 -445 -10 -445 -5 0 -74 18 -152 40 -79 22 -146
40 -150 40 -5 0 -8 -49 -8 -108 l0 -109 228 -63 c125 -34 235 -65 245 -68 16
-4 17 28 17 577 l0 581 -85 0 -85 0 0 -445z"/>
<path d="M1220 1369 c0 -357 1 -380 18 -375 45 13 283 49 288 43 3 -3 3 -41
-1 -85 l-7 -79 -146 -40 -147 -39 -3 -102 c-1 -56 0 -102 4 -102 22 0 421 115
430 124 9 9 59 534 52 542 -2 1 -59 -6 -128 -17 -69 -10 -140 -19 -158 -19
l-32 0 2 178 3 177 171 3 171 2 7 53 c3 28 6 67 6 85 l0 32 -265 0 -265 0 0
-381z"/>
</g>
</svg>
