<?xml version="1.0" standalone="no"?>
<!DOCTYPE svg PUBLIC "-//W3C//DTD SVG 20010904//EN"
 "http://www.w3.org/TR/2001/REC-SVG-20010904/DTD/svg10.dtd">
<svg version="1.0" xmlns="http://www.w3.org/2000/svg"
 width="225.000000pt" height="225.000000pt" viewBox="0 0 225.000000 225.000000"
 preserveAspectRatio="xMidYMid meet">

<g transform="translate(0.000000,225.000000) scale(0.100000,-0.100000)"
fill="#000000" stroke="none">
<path d="M300 1130 l0 -410 60 0 60 0 0 326 0 327 78 -124 c43 -68 136 -215
206 -326 l129 -203 73 0 74 0 0 410 0 410 -65 0 -66 0 3 -320 c2 -176 3 -320
2 -320 0 0 -90 144 -200 320 l-199 319 -77 1 -78 0 0 -410z"/>
<path d="M1160 1130 l0 -410 225 0 225 0 0 55 0 55 -160 0 -160 0 0 125 0 125
138 0 137 0 0 55 0 55 -137 0 -138 0 0 120 0 120 150 0 150 0 0 55 0 55 -215
0 -215 0 0 -410z"/>
<path d="M1660 1485 l0 -55 115 0 115 0 0 -355 0 -355 65 0 65 0 0 355 0 355
115 0 115 0 0 55 0 55 -295 0 -295 0 0 -55z"/>
<path d="M25 835 c-32 -31 -32 -69 0 -100 32 -33 83 -34 113 -2 68 73 -43 173
-113 102z"/>
</g>
</svg>
