<?xml version="1.0" standalone="no"?>
<!DOCTYPE svg PUBLIC "-//W3C//DTD SVG 20010904//EN"
 "http://www.w3.org/TR/2001/REC-SVG-20010904/DTD/svg10.dtd">
<svg version="1.0" xmlns="http://www.w3.org/2000/svg"
 width="202.000000pt" height="250.000000pt" viewBox="0 0 202.000000 250.000000"
 preserveAspectRatio="xMidYMid meet">

<g transform="translate(0.000000,250.000000) scale(0.100000,-0.100000)"
fill="#000000" stroke="none">
<path d="M99 2417 c-103 -68 -93 -254 16 -307 53 -26 90 -25 145 3 54 27 80
68 86 139 7 65 -23 131 -75 165 -47 32 -125 32 -172 0z m169 -53 c28 -30 32
-40 32 -89 0 -92 -41 -145 -110 -145 -80 0 -127 64 -118 161 11 110 121 152
196 73z"/>
<path d="M410 2271 c0 -164 1 -171 20 -171 18 0 20 7 20 75 l0 75 45 0 c52 0
68 -12 121 -95 27 -42 40 -55 59 -55 14 0 25 2 25 6 0 12 -83 126 -96 131 -23
9 -16 20 16 26 63 13 78 118 23 154 -20 13 -54 19 -130 21 l-103 4 0 -171z
m201 119 c13 -7 19 -21 19 -45 0 -45 -20 -55 -109 -55 l-71 0 0 55 0 55 71 0
c39 0 79 -5 90 -10z"/>
<path d="M813 2278 c-35 -90 -63 -167 -63 -171 0 -5 10 -7 22 -5 17 2 26 15
37 51 l15 48 74 -3 74 -3 18 -45 c14 -35 23 -46 43 -48 26 -3 26 -3 -43 165
-59 145 -72 168 -92 171 -21 3 -28 -10 -85 -160z m115 36 c12 -34 22 -64 22
-68 0 -3 -24 -6 -54 -6 l-54 0 26 75 c15 40 30 71 33 67 3 -4 15 -34 27 -68z"/>
<path d="M1181 2418 c-51 -34 -74 -80 -74 -148 0 -66 24 -124 66 -154 37 -28
130 -28 170 -2 27 18 57 63 57 86 0 23 -40 9 -55 -20 -19 -36 -43 -50 -87 -50
-65 0 -108 54 -108 135 0 88 43 139 117 139 27 0 42 -7 64 -32 30 -34 59 -42
59 -17 0 8 -13 29 -29 47 -24 27 -36 32 -87 36 -50 3 -65 0 -93 -20z"/>
<path d="M1460 2270 l0 -170 105 0 c98 0 105 1 105 20 0 18 -7 20 -85 20 l-85
0 0 150 c0 143 -1 150 -20 150 -19 0 -20 -7 -20 -170z"/>
<path d="M1728 2270 l-3 -170 128 0 c120 0 127 1 127 20 0 19 -7 20 -105 20
l-105 0 0 55 0 54 92 3 c79 3 93 6 96 21 3 15 -6 17 -92 17 l-96 0 0 55 0 55
100 0 c93 0 100 1 100 20 0 19 -7 20 -120 20 l-119 0 -3 -170z"/>
<path d="M835 1899 c-313 -16 -569 -83 -662 -172 -44 -42 -44 -76 2 -116 71
-62 192 -105 400 -142 117 -21 160 -24 435 -24 270 0 319 3 431 22 272 48 439
126 439 205 0 77 -164 153 -425 198 -103 18 -402 43 -460 38 -11 0 -83 -4
-160 -9z"/>
<path d="M130 1391 c0 -189 0 -190 26 -220 97 -116 507 -191 964 -178 368 11
632 71 733 165 l27 26 0 193 c0 179 -5 215 -26 182 -13 -22 -154 -79 -256
-104 -183 -45 -322 -59 -583 -59 -237 0 -351 9 -510 40 -125 25 -259 71 -315
109 -29 19 -54 35 -56 35 -2 0 -4 -85 -4 -189z"/>
<path d="M130 929 c0 -116 4 -198 11 -210 30 -58 200 -123 409 -158 489 -82
1144 -19 1295 123 l35 33 0 201 0 202 -42 -30 c-281 -195 -1389 -189 -1667 9
-16 12 -32 21 -35 21 -3 0 -6 -86 -6 -191z"/>
<path d="M130 455 l0 -203 32 -33 c212 -212 1338 -237 1651 -37 26 17 52 39
57 49 6 10 10 108 10 218 l0 201 -40 -25 c-133 -84 -375 -132 -715 -142 -414
-12 -775 43 -940 142 l-55 34 0 -204z"/>
</g>
</svg>
