<?xml version="1.0" standalone="no"?>
<!DOCTYPE svg PUBLIC "-//W3C//DTD SVG 20010904//EN"
 "http://www.w3.org/TR/2001/REC-SVG-20010904/DTD/svg10.dtd">
<svg version="1.0" xmlns="http://www.w3.org/2000/svg"
 width="266.000000pt" height="190.000000pt" viewBox="0 0 266.000000 190.000000"
 preserveAspectRatio="xMidYMid meet">
<metadata>
Created by potrace 1.16, written by Peter Selinger 2001-2019
</metadata>
<g transform="translate(0.000000,190.000000) scale(0.100000,-0.100000)"
fill="#000000" stroke="none">
<path d="M895 1226 c-109 -30 -122 -36 -138 -64 -16 -27 -25 -32 -57 -32 -34
0 -47 -9 -131 -90 l-94 -90 95 -90 c84 -80 99 -90 131 -90 31 0 40 -5 56 -31
16 -29 28 -35 143 -65 69 -18 125 -32 126 -31 1 1 16 56 34 121 32 119 32 120
14 153 -17 33 -17 35 0 64 18 30 18 33 -15 155 -18 68 -36 124 -39 123 -3 -1
-59 -16 -125 -33z m-16 -156 l-53 -90 -111 0 -110 0 71 71 c69 69 73 71 160
93 49 13 91 22 93 20 2 -2 -20 -44 -50 -94z m141 -35 l23 -85 -23 -85 c-13
-47 -26 -88 -30 -90 -3 -2 -30 36 -59 86 l-53 89 53 89 c29 50 56 88 59 86 4
-2 17 -43 30 -90z m-142 -203 c29 -49 52 -91 52 -93 0 -3 -42 5 -92 18 -91 23
-94 25 -163 93 l-70 70 110 0 111 0 52 -88z"/>
<path d="M1830 1110 c0 -29 -4 -40 -15 -40 -8 0 -15 -9 -15 -20 0 -11 7 -20
15 -20 12 0 15 -16 15 -83 0 -52 5 -89 13 -99 14 -18 52 -29 73 -21 21 8 17
40 -6 46 -18 5 -20 14 -20 81 0 69 2 76 20 76 13 0 20 7 20 20 0 13 -7 20 -20
20 -17 0 -20 7 -20 40 0 38 -2 40 -30 40 -28 0 -30 -2 -30 -40z"/>
<path d="M1570 1073 c-8 -3 -23 -12 -32 -21 -16 -14 -18 -13 -18 1 0 11 -8 17
-25 17 l-25 0 0 -120 0 -120 25 0 c24 0 25 2 25 68 0 81 15 116 52 120 43 5
60 -31 57 -120 -2 -72 -2 -73 24 -76 l27 -3 0 100 c0 116 -3 127 -41 146 -29
16 -44 17 -69 8z"/>
<path d="M1220 971 c0 -84 3 -102 21 -125 24 -31 81 -36 117 -10 20 14 22 14
22 0 0 -10 9 -16 25 -16 l25 0 0 125 0 125 -25 0 c-24 0 -25 -2 -26 -67 -1
-91 -10 -116 -41 -127 -47 -16 -58 4 -58 105 l0 89 -30 0 -30 0 0 -99z"/>
<path d="M1950 1068 c0 -2 18 -50 40 -108 50 -130 51 -158 10 -166 -24 -5 -30
-12 -30 -32 0 -23 2 -24 42 -19 25 3 49 14 59 26 13 16 109 277 109 296 0 3
-13 5 -29 5 -27 0 -31 -5 -51 -67 -12 -38 -24 -75 -26 -83 -3 -8 -18 21 -33
65 -26 76 -29 80 -59 83 -18 2 -32 2 -32 0z"/>
</g>
</svg>
